<?xml version="1.0" encoding="utf-8"?>
<!-- Generator: Adobe Illustrator 23.0.1, SVG Export Plug-In . SVG Version: 6.00 Build 0)  -->
<svg version="1.1" id="Layer_1" xmlns="http://www.w3.org/2000/svg" xmlns:xlink="http://www.w3.org/1999/xlink" x="0px" y="0px"
	 viewBox="0 0 1024 623" style="enable-background:new 0 0 1024 623;" xml:space="preserve">
<style type="text/css">
	.st0{fill:#0270C9;}
	.st1{fill:#FFFFFF;}
	.st2{fill:#2A98F1;}
	.st3{fill:#D7D7D7;}
</style>
<path class="st0" d="M984,623H40c-22.09,0-40-17.91-40-40V40C0,17.91,17.91,0,40,0h944c22.09,0,40,17.91,40,40v543
	C1024,605.09,1006.09,623,984,623z"/>
<g>
	<path class="st1" d="M94.21,464.56c-49.48,0-74.21-18.32-74.21-54.96V20h148.42v332.55c0,0.94,0.47,1.39,1.43,1.39h33.54
		c0.95,0,1.43-0.46,1.43-1.39V20h148.42v389.59c0,36.65-24.74,54.96-74.21,54.96H94.21z"/>
	<path class="st1" d="M648.65,603c-49.48,0-74.21-18.33-74.21-54.96V287.85c0-0.92-0.48-1.39-1.43-1.39h-34.97v178.1H389.62V20
		h259.02c48.99,0,73.5,18.78,73.5,56.35v129.4c0,21.34-12.13,33.39-36.39,36.18c24.73,3.25,37.11,15.54,37.11,36.87v212.19
		c0,0.92,0.47,1.39,1.43,1.39H1004V603H648.65z M574.44,132.7c0-0.92-0.48-1.39-1.43-1.39h-34.97v66.79h34.97
		c0.95,0,1.43-0.46,1.43-1.39V132.7z M759.25,464.56V20h148.42v333.94H1004v110.62H759.25z"/>
</g>
<g>
	<path class="st2" d="M109.89,603c-1.83,0-3.63-0.31-5.4-0.94c-1.78-0.63-3.39-1.47-4.83-2.52c-1.44-1.06-2.59-2.28-3.46-3.67
		c-0.86-1.39-1.3-2.81-1.3-4.25v-86.01c0-0.19-0.1-0.29-0.29-0.29h-7.06c-0.19,0-0.29,0.1-0.29,0.29v68.72H57.31v-68.72
		c0-0.19-0.1-0.29-0.29-0.29h-6.77c-0.19,0-0.29,0.1-0.29,0.29v68.72H20v-92.06h29.96v5.91c1.82-1.92,4.44-3.39,7.85-4.39
		c3.41-1.01,7.27-1.51,11.6-1.51c4.42,0,7.85,0.58,10.3,1.73c2.45,1.15,4.49,2.88,6.12,5.19c2.21-2.79,4.97-4.63,8.28-5.55
		c3.31-0.91,7.32-1.37,12.03-1.37c2.59,0,5.02,0.31,7.28,0.94c2.26,0.63,4.2,1.51,5.83,2.66c1.63,1.15,2.93,2.52,3.89,4.11
		c0.96,1.58,1.44,3.29,1.44,5.11v84.71c0,0.19,0.09,0.29,0.29,0.29h57.91V603H109.89z M131.94,574.33v-92.06h50.71v23.05H161.9
		v11.52h20.46v23.05H161.9v11.52h20.89v22.91H131.94z"/>
	<path class="st2" d="M204.69,574.33c-9.99,0-14.98-3.79-14.98-11.38v-17.29h29.97v5.48c0,0.19,0.09,0.29,0.29,0.29h6.77
		c0.19,0,0.29-0.09,0.29-0.29v-10.95c0-0.19-0.1-0.29-0.29-0.29h-22.04c-9.99,0-14.98-3.89-14.98-11.67v-34.29
		c0-7.78,4.99-11.67,14.98-11.67H242c9.99,0,14.98,3.89,14.98,11.67v17h-29.97v-5.33c0-0.19-0.1-0.29-0.29-0.29h-6.77
		c-0.19,0-0.29,0.1-0.29,0.29v10.95c0,0.19,0.09,0.29,0.29,0.29H242c9.99,0,14.98,3.8,14.98,11.38v34.72c0,7.59-5,11.38-14.98,11.38
		H204.69z"/>
	<path class="st2" d="M278.88,574.33c-9.99,0-14.98-3.79-14.98-11.38v-17.29h29.97v5.48c0,0.19,0.09,0.29,0.29,0.29h6.77
		c0.19,0,0.29-0.09,0.29-0.29v-10.95c0-0.19-0.1-0.29-0.29-0.29h-22.04c-9.99,0-14.98-3.89-14.98-11.67v-34.29
		c0-7.78,4.99-11.67,14.98-11.67h37.31c9.99,0,14.98,3.89,14.98,11.67v17h-29.97v-5.33c0-0.19-0.1-0.29-0.29-0.29h-6.77
		c-0.19,0-0.29,0.1-0.29,0.29v10.95c0,0.19,0.09,0.29,0.29,0.29h22.04c9.99,0,14.98,3.8,14.98,11.38v34.72
		c0,7.59-5,11.38-14.98,11.38H278.88z"/>
	<path class="st2" d="M375.54,574.33V539.9h-7.35v34.43h-29.96v-80.39c0-7.78,4.99-11.67,14.98-11.67h37.31
		c9.99,0,14.98,3.89,14.98,11.67v80.39H375.54z M375.54,505.61c0-0.19-0.1-0.29-0.29-0.29h-6.77c-0.19,0-0.29,0.1-0.29,0.29v11.24
		h7.35V505.61z"/>
	<path class="st2" d="M427.55,574.33c-9.99,0-14.98-3.79-14.98-11.38v-69c0-7.78,4.99-11.67,14.98-11.67h37.31
		c9.99,0,14.98,3.89,14.98,11.67v15.56h-29.97v-3.89c0-0.19-0.1-0.29-0.29-0.29h-6.77c-0.19,0-0.29,0.1-0.29,0.29v45.52
		c0,0.19,0.09,0.29,0.29,0.29h7.06V518h29.97v56.33H427.55z"/>
	<path class="st2" d="M487.19,574.33v-92.06h50.71v23.05h-20.74v11.52h20.46v23.05h-20.46v11.52h20.89v22.91H487.19z"/>
</g>
<g>
	<path class="st3" d="M694.6,574.33h-91.91v-29.92h91.91V574.33z"/>
	<path class="st3" d="M694.6,499.68h-68.61c-0.19,0-0.29,0.1-0.29,0.29v6.76c0,0.19,0.1,0.29,0.29,0.29h68.61v29.92h-91.91v-29.92
		h5.9c-3.93-5.08-5.9-12.51-5.9-22.3c0-9.97,3.88-14.96,11.65-14.96h80.26V499.68z"/>
	<path class="st3" d="M694.6,393.24h-34.38v7.34h34.38v29.92h-80.26c-7.77,0-11.65-4.99-11.65-14.96v-37.25
		c0-9.97,3.88-14.96,11.65-14.96h80.26V393.24z M625.99,393.24c-0.19,0-0.29,0.1-0.29,0.29v6.76c0,0.19,0.1,0.29,0.29,0.29h11.22
		v-7.34H625.99z"/>
</g>
</svg>
